<svg id="visual" viewBox="0 0 600 900" width="600" height="900" xmlns="http://www.w3.org/2000/svg" xmlns:xlink="http://www.w3.org/1999/xlink" version="1.1"><rect x="0" y="0" width="600" height="900" fill="#FF0066"></rect><g transform="translate(301.5999366608296 469.0818913661552)"><path d="M143.1 -232.7C178.2 -200.2 194.1 -148.1 201.6 -101.1C209 -54.1 208 -12.2 204.3 31C200.6 74.2 194.4 118.6 172.4 156C150.3 193.5 112.5 223.9 71.4 229.8C30.3 235.7 -14 217.2 -53.8 198.5C-93.5 179.8 -128.8 160.9 -154 132.9C-179.3 104.8 -194.6 67.5 -203.5 27.3C-212.4 -13 -214.9 -56.1 -196.8 -87.5C-178.7 -118.8 -140.1 -138.3 -103.8 -170.2C-67.6 -202.2 -33.8 -246.6 10.1 -262.4C54.1 -278.1 108.1 -265.3 143.1 -232.7" fill="#BB004B"></path></g></svg>