<svg id="visual" viewBox="0 0 900 450" width="900" height="450" xmlns="http://www.w3.org/2000/svg" xmlns:xlink="http://www.w3.org/1999/xlink" version="1.1"><path d="M0 306L21.5 304C43 302 86 298 128.8 300.2C171.7 302.3 214.3 310.7 257.2 313.5C300 316.3 343 313.7 385.8 313.5C428.7 313.3 471.3 315.7 514.2 313.5C557 311.3 600 304.7 642.8 303.5C685.7 302.3 728.3 306.7 771.2 311C814 315.3 857 319.7 878.5 321.8L900 324L900 451L878.5 451C857 451 814 451 771.2 451C728.3 451 685.7 451 642.8 451C600 451 557 451 514.2 451C471.3 451 428.7 451 385.8 451C343 451 300 451 257.2 451C214.3 451 171.7 451 128.8 451C86 451 43 451 21.5 451L0 451Z" fill="#9a5f76"></path><path d="M0 344L21.5 342C43 340 86 336 128.8 335.3C171.7 334.7 214.3 337.3 257.2 333C300 328.7 343 317.3 385.8 310.8C428.7 304.3 471.3 302.7 514.2 305.7C557 308.7 600 316.3 642.8 319.5C685.7 322.7 728.3 321.3 771.2 323C814 324.7 857 329.3 878.5 331.7L900 334L900 451L878.5 451C857 451 814 451 771.2 451C728.3 451 685.7 451 642.8 451C600 451 557 451 514.2 451C471.3 451 428.7 451 385.8 451C343 451 300 451 257.2 451C214.3 451 171.7 451 128.8 451C86 451 43 451 21.5 451L0 451Z" fill="#a4516f"></path><path d="M0 342L21.5 347.5C43 353 86 364 128.8 366.3C171.7 368.7 214.3 362.3 257.2 363.3C300 364.3 343 372.7 385.8 373.8C428.7 375 471.3 369 514.2 365.7C557 362.3 600 361.7 642.8 356.5C685.7 351.3 728.3 341.7 771.2 339.7C814 337.7 857 343.3 878.5 346.2L900 349L900 451L878.5 451C857 451 814 451 771.2 451C728.3 451 685.7 451 642.8 451C600 451 557 451 514.2 451C471.3 451 428.7 451 385.8 451C343 451 300 451 257.2 451C214.3 451 171.7 451 128.8 451C86 451 43 451 21.5 451L0 451Z" fill="#ad4165"></path><path d="M0 371L21.5 369.2C43 367.3 86 363.7 128.8 362C171.7 360.3 214.3 360.7 257.2 361.7C300 362.7 343 364.3 385.8 369.5C428.7 374.7 471.3 383.3 514.2 383.3C557 383.3 600 374.7 642.8 374C685.7 373.3 728.3 380.7 771.2 382.7C814 384.7 857 381.3 878.5 379.7L900 378L900 451L878.5 451C857 451 814 451 771.2 451C728.3 451 685.7 451 642.8 451C600 451 557 451 514.2 451C471.3 451 428.7 451 385.8 451C343 451 300 451 257.2 451C214.3 451 171.7 451 128.8 451C86 451 43 451 21.5 451L0 451Z" fill="#b52c59"></path><path d="M0 412L21.5 412.5C43 413 86 414 128.8 412.8C171.7 411.7 214.3 408.3 257.2 408C300 407.7 343 410.3 385.8 409C428.7 407.7 471.3 402.3 514.2 401C557 399.7 600 402.3 642.8 404.8C685.7 407.3 728.3 409.7 771.2 408C814 406.3 857 400.7 878.5 397.8L900 395L900 451L878.5 451C857 451 814 451 771.2 451C728.3 451 685.7 451 642.8 451C600 451 557 451 514.2 451C471.3 451 428.7 451 385.8 451C343 451 300 451 257.2 451C214.3 451 171.7 451 128.8 451C86 451 43 451 21.5 451L0 451Z" fill="#bb004b"></path></svg>